<?xml version="1.0" encoding="UTF-8" standalone="no"?>
<svg width="24px" height="24px" viewBox="0 0 24 24" version="1.1" xmlns="http://www.w3.org/2000/svg" xmlns:xlink="http://www.w3.org/1999/xlink" xmlns:sketch="http://www.bohemiancoding.com/sketch/ns">
    <!-- Generator: Sketch 3.0.3 (7892) - http://www.bohemiancoding.com/sketch -->
    <title>Slice 1</title>
    <desc>Created with Sketch.</desc>
    <defs></defs>
    <g id="Page-1" stroke="none" stroke-width="1" fill="none" fill-rule="evenodd" sketch:type="MSPage">
        <g id="ic_apps_36px" sketch:type="MSLayerGroup" transform="translate(-6.000000, -6.000000)">
            <path d="M6,12 L12,12 L12,6 L6,6 L6,12 L6,12 Z M15,30 L21,30 L21,24 L15,24 L15,30 L15,30 Z M6,30 L12,30 L12,24 L6,24 L6,30 L6,30 Z M6,21 L12,21 L12,15 L6,15 L6,21 L6,21 Z M15,21 L21,21 L21,15 L15,15 L15,21 L15,21 Z M24,6 L24,12 L30,12 L30,6 L24,6 L24,6 Z M15,12 L21,12 L21,6 L15,6 L15,12 L15,12 Z M24,21 L30,21 L30,15 L24,15 L24,21 L24,21 Z M24,30 L30,30 L30,24 L24,24 L24,30 L24,30 Z" id="Shape" fill="#FFFFFF" sketch:type="MSShapeGroup"></path>
            <path d="M0,0 L36,0 L36,36 L0,36 L0,0 Z" id="Shape" sketch:type="MSShapeGroup"></path>
        </g>
    </g>
</svg>